<svg xmlns="http://www.w3.org/2000/svg" viewBox="0 0 601.49 804.19"><title>Element 3</title><path d="M344.28,511.05c-15.72-11-44.47-33.17-57.9-43.7l21.88-33.79c10.37,10.36,11.05,11.81,36,26.35,93.3-69.36,143.1-132,148.15-186.51V255.25c-4.07-43.41-30.76-61.67-47.9-63.34-4.69-.46-9.11-.69-13.15-.69-24.66,0-34.95,7.56-55.32,31.83l-31.78,37.87L312.5,223.05c-20.37-24.27-30.66-31.83-55.33-31.83-2,0-4.08.05-6.25.17-5.17-3.56-11.63-7.26-17.62-8.54-10.57-2.27-40.48-5.87-57.27,7.65,17.08-24.45,41.57-37.69,64-39.88,6.11-.6,11.81-.89,17.17-.89,42.94,0,63.54,18.56,87.11,46.66,23.58-28.1,44.17-46.66,87.1-46.66,5.36,0,11.07.29,17.18.89,37.15,3.63,80.12,37.65,85.36,102.83v4.32c6.37-42.56,9.08-90.06,6.81-143,0,0-123.31,20.86-241.43-114.75C181.19,135.61,57.88,114.75,57.88,114.75,52,251.78,79.41,352.3,117.63,425.16c38.16-53,58.34-93.37,58.34-93.37l33.57,53c-19.28,31.44-51.77,75.62-56.45,80.37a31.86,31.86,0,0,1-7.67,6c69.22,99.8,153.88,130,153.88,130s156.52-55.85,217.92-266.56C493.2,384.84,441.17,443.1,344.28,511.05Zm-73-247c-.69,16.29-23.56,54.31-23.56,54.31l-33.05-60.89L246.5,194.8C260,203.29,272,247.7,271.28,264Zm-67.07-77.14c3.88,0,8.4-.39,13.71-.12,18.79,1,26.11,6.48,26.11,6.48L232.55,216c-24-3.36-40.45,0-40.45,0l-10.9-23C185.33,189.29,192.22,186.86,204.21,186.86Zm-50.75,70.39c2-34.25,25.18-62.45,25.18-62.45,72.52,155.12,125.84,234.09,125.84,234.09C285.17,460.29,282.69,464,282.69,464,226,412.22,151.44,291.5,153.46,257.25Z" style="fill:#fff"/><text transform="translate(41.18 729.37)" style="font-size:120px;fill:#fff;font-family:Study-Semibold, Study;font-weight:600;letter-spacing:-0.014998372395833333em; opacity: .85;">B<tspan x="75.12" y="0" style="letter-spacing:-0.003999837239583333em">A</tspan><tspan x="156.84" y="0" style="letter-spacing:-0.03698323567708333em">S</tspan><tspan x="218.64" y="0" style="letter-spacing:-0.000004069010416666667em">TION</tspan></text><text transform="translate(0 787.17)" style="font-size:56px;fill:#fff;font-family:ProximaNova-Light, Proxima Nova;font-weight:300;letter-spacing:-0.0019967215401785715em; opacity: .6;">C<tspan x="37.52" y="0" style="letter-spacing:-0.000008719308035714285em">ANCER MAN</tspan><tspan x="349.49" y="0" style="letter-spacing:-0.03899274553571429em">A</tspan><tspan x="383.54" y="0" style="letter-spacing:0.000008719308035714285em">GEMENT</tspan></text></svg>