<svg xmlns="http://www.w3.org/2000/svg" viewBox="0 0 596.28 787.89">
    <title>Element 5</title>
    <path d="M344.28,511.05c-15.72-11-44.47-33.17-57.9-43.7l21.88-33.79c10.37,10.36,11.05,11.81,36,26.35,93.3-69.36,143.1-132,148.15-186.51V255.25c-4.07-43.41-30.76-61.67-47.9-63.34-4.69-.46-9.11-.69-13.15-.69-24.66,0-34.95,7.56-55.32,31.83l-31.78,37.87L312.5,223.05c-20.37-24.27-30.66-31.83-55.33-31.83-2,0-4.08.05-6.25.17-5.17-3.56-11.63-7.26-17.62-8.54-10.57-2.27-40.48-5.87-57.27,7.65,17.08-24.45,41.57-37.69,64-39.88,6.11-.6,11.81-.89,17.17-.89,42.94,0,63.54,18.56,87.11,46.66,23.58-28.1,44.17-46.66,87.1-46.66,5.36,0,11.07.29,17.18.89,37.15,3.63,80.12,37.65,85.36,102.83v4.32c6.37-42.56,9.08-90.06,6.81-143,0,0-123.31,20.86-241.43-114.75C181.19,135.61,57.88,114.75,57.88,114.75,52,251.78,79.41,352.3,117.63,425.16c38.16-53,58.34-93.37,58.34-93.37l33.57,53c-19.28,31.44-51.77,75.62-56.45,80.37a31.86,31.86,0,0,1-7.67,6c69.22,99.8,153.88,130,153.88,130s156.52-55.85,217.92-266.56C493.2,384.84,441.17,443.1,344.28,511.05Zm-73-247c-.69,16.29-23.56,54.31-23.56,54.31l-33.05-60.89L246.5,194.8C260,203.29,272,247.7,271.28,264Zm-67.07-77.14c3.88,0,8.4-.39,13.71-.12,18.79,1,26.11,6.48,26.11,6.48L232.55,216c-24-3.36-40.45,0-40.45,0l-10.9-23C185.33,189.29,192.22,186.86,204.21,186.86Zm-50.75,70.39c2-34.25,25.18-62.45,25.18-62.45,72.52,155.12,125.84,234.09,125.84,234.09C285.17,460.29,282.69,464,282.69,464,226,412.22,151.44,291.5,153.46,257.25Z" transform="translate(-3.25)" style="fill:#fff" />
    <g style="opacity: .85;">
        <path d="M81.26,729.37H46v-5.52l7.08-.48c.48-2.28.84-8.76.84-25.32V684.37c0-18.24-.36-24.36-1-27l-7-.48v-5.52H85.7c16.91,0,22.79,5,22.79,17.16,0,8.52-4.44,14.88-13.43,18.12,11,1.2,17.27,6.12,17.27,17.88,0,9.24-4.08,16-12.36,20.4A38.08,38.08,0,0,1,81.26,729.37ZM69.14,686.05H81.86c7.32,0,11.16-4.08,11.16-13v-1.56c0-10.56-4.68-13.68-17.16-13.68H69.5c-.24,2.52-.36,8.16-.36,13.44Zm14.64,36.36c3.72,0,6.36-.6,8.28-1.8,3.6-2.28,4.44-6.12,4.44-12.48v-1.92c0-8.52-5-13-16.56-13H69.14V696c0,14.52.24,21.6.72,24.72A58.61,58.61,0,0,0,83.78,722.41Z" transform="translate(-3.25)" style="fill:#fff" />
        <path d="M142.34,729.37H117.62v-5.52l5.52-.84,26.15-70.8.25-.24L165,650.53l.36.12,27.12,72.6,4.8.6v5.52h-30.6v-5.52l7.68-.6c-.36-4.2-2.76-13.32-6.12-22.44l-1.8-4.92-6.12,5.4c-3.24-.12-6.83-.24-11.52-.24H139c-3.12,8.88-4.92,17.28-5.28,22l8.64.84Zm23.15-36.12L153.38,660,141.5,693.73H157A48.79,48.79,0,0,0,165.49,693.25Z" transform="translate(-3.25)" style="fill:#fff" />
        <path d="M205.46,727.09V711h5.88l.84,6.6c3,2.4,11.63,5,20,5a15.16,15.16,0,0,0,8.16-1.92c3-1.8,4.2-4.44,4.2-10.8,0-9.84-4.2-11.52-13-12.6l-5-.6c-14-1.68-23-3.72-23-19.44,0-10.44,3.12-15.84,12-21.24,6.84-4.08,12-5.88,20.87-5.88a55.77,55.77,0,0,1,18.48,3v15.24h-5.76l-.72-6.12c-3.84-2.28-10.92-4.2-18.12-4.2a15.39,15.39,0,0,0-8.15,1.92c-2.88,1.8-4.08,4.44-4.08,10.8,0,9.84,4.19,11.52,12.95,12.6l5,.6c14,1.68,23,3.72,23,19.44,0,10.44-3.12,15.84-12,21.24-6.72,4.08-12,5.88-21.11,5.88C217.34,730.57,209.54,728.89,205.46,727.09Z" transform="translate(-3.25)" style="fill:#fff" />
        <path d="M283.46,723.85l7.68-.48c.48-2,1-7.68,1-23.88V684c0-14.4-.25-21.36-.48-24.84h-7.68c-12.72,0-15.72.72-22,4.56l-2.28-2.52,8.88-10.2.36-.12c3.24.6,6.84.84,18.84.84h31.79c9.48,0,12.24-.72,16.92-4.08l2.28,2.4-8.4,10.08-.24.12a118.86,118.86,0,0,0-18.36-1.08h-4.2c-.24,3.24-.36,9.6-.36,22.44v15.48c0,17.52.36,23.76.84,26.28l7.8.48v5.52H283.46Z" transform="translate(-3.25)" style="fill:#fff" />
        <path d="M343.94,723.85l7.8-.48c.48-2,.72-8.4.72-23.88V683.65c0-16.68-.24-23.64-.72-26.28l-7.8-.48v-5.52h32.15v5.52l-7.68.48c-.48,2.16-.84,8.52-.84,23.88v15.84c0,16.8.36,23.76.84,26.28l7.68.48v5.52H343.94Z" transform="translate(-3.25)" style="fill:#fff" />
        <path d="M396.85,722.05c-6-6.12-8.64-14.28-8.64-28.68,0-20.76,5.28-29.76,18.48-37.56,6.36-3.72,12.24-5.64,22.8-5.64,12,0,19.56,2.52,25.56,8.52s8.52,14.28,8.52,28.68c0,20.76-5.28,29.76-18.48,37.56-6.36,3.72-12.24,5.64-22.68,5.64C410.41,730.57,402.85,728.05,396.85,722.05Zm43.44-2.4c6.36-3.72,7.44-8.4,7.44-24.48v-6.24c0-13.08-1.56-19.56-6.6-24.6-4-4-9.6-5.76-18-5.76-4.92,0-8.64.72-11.64,2.52-6.36,3.72-7.32,8.4-7.32,24.48v6.24c0,13.08,1.44,19.56,6.48,24.6,4,4,9.6,5.76,18,5.76C433.69,722.17,437.29,721.45,440.29,719.65Z" transform="translate(-3.25)" style="fill:#fff" />
        <path d="M538.69,730.45h-.36l-47-65v22.68c0,19.56.36,29.52,1.08,34.68l8.28,1v5.64h-25.8V724l7.44-1.08c1-7.44,1.32-18.12,1.32-35.16V658.21l-8-1.32v-5.52H499l.48.24,40.56,57c.36-6,.48-13.32.48-20.16V684c0-13.92-.6-22-1.32-26l-8.28-1.08v-5.52h25.32v5.4L549,658c-.84,6.6-1.08,17.4-1.08,27v41.28l-.12.24Z" transform="translate(-3.25)" style="fill:#fff" />
    </g>
    <g style="opacity: .5;">
        <path d="M3.25,768.52c0-11.48,8.34-19.32,18.81-19.32a16.92,16.92,0,0,1,13.72,6.6l-2.68,1.74a13.64,13.64,0,0,0-11-5.43c-8.68,0-15.45,6.66-15.45,16.41s6.77,16.4,15.45,16.4a13.64,13.64,0,0,0,11-5.43l2.68,1.68a16.79,16.79,0,0,1-13.72,6.67C11.59,787.84,3.25,780,3.25,768.52Z" transform="translate(-3.25)" style="fill:#fff" />
        <path d="M65.58,778H45.7l-3.76,9.19H38.36l15.29-37.36h4l15.29,37.36H69.33ZM46.7,775.07H64.57l-9-22.12Z" transform="translate(-3.25)" style="fill:#fff" />
        <path d="M81.59,754.91v32.26H78.4V749.81h3.25l23.4,31.81V749.81h3.2v37.36h-3.14Z" transform="translate(-3.25)" style="fill:#fff" />
        <path d="M116.14,768.52c0-11.48,8.35-19.32,18.82-19.32a16.92,16.92,0,0,1,13.72,6.6L146,757.54a13.62,13.62,0,0,0-11-5.43c-8.68,0-15.46,6.66-15.46,16.41s6.78,16.4,15.46,16.4a13.62,13.62,0,0,0,11-5.43l2.69,1.68A16.81,16.81,0,0,1,135,787.84C124.49,787.84,116.14,780,116.14,768.52Z" transform="translate(-3.25)" style="fill:#fff" />
        <path d="M155.17,749.81h23.69v2.92H158.37v13.83h20.1v2.91h-20.1v14.78h20.49v2.92H155.17Z" transform="translate(-3.25)" style="fill:#fff" />
        <path d="M198.18,771.71H190v15.46h-3.19V749.81H200.7c6.44,0,11.37,4.09,11.37,10.92s-4.82,10.53-10.36,10.76l10.81,15.68h-3.87Zm2.24-19H190V768.8h10.47c4.93,0,8.29-3.36,8.29-8.07S205.35,752.73,200.42,752.73Z" transform="translate(-3.25)" style="fill:#fff" />
        <path d="M266.22,754l-13.61,33.16h-1.23L237.72,754v33.16h-3.2V749.81h4.77l12.71,31,12.65-31h4.82v37.36h-3.25Z" transform="translate(-3.25)" style="fill:#fff" />
        <path d="M302.17,778H282.29l-3.75,9.19H275l15.28-37.36h4l15.29,37.36h-3.59Zm-18.87-2.91h17.86l-9-22.12Z" transform="translate(-3.25)" style="fill:#fff" />
        <path d="M318.19,754.91v32.26H315V749.81h3.24l23.41,31.81V749.81h3.19v37.36h-3.13Z" transform="translate(-3.25)" style="fill:#fff" />
        <path d="M377.55,778H357.67l-3.75,9.19h-3.59l15.29-37.36h4l15.28,37.36H381.3Zm-18.87-2.91h17.86l-9-22.12Z" transform="translate(-3.25)" style="fill:#fff" />
        <path d="M405.72,749.2a17.72,17.72,0,0,1,14,6.38l-2.41,1.74a15.19,15.19,0,0,0-11.64-5.21c-8.8,0-15.57,6.66-15.57,16.41S396.92,785,405.72,785a15.89,15.89,0,0,0,11-4.53v-9H402.58v-2.86h17.3v13a18.85,18.85,0,0,1-14.16,6.21c-10.48,0-18.93-7.84-18.93-19.37S395.24,749.2,405.72,749.2Z" transform="translate(-3.25)" style="fill:#fff" />
        <path d="M428,749.81h23.69v2.92H431.2v13.83h20.1v2.91H431.2v14.78h20.49v2.92H428Z" transform="translate(-3.25)" style="fill:#fff" />
        <path d="M491.28,754l-13.6,33.16h-1.24L462.78,754v33.16h-3.19V749.81h4.76l12.71,31,12.65-31h4.82v37.36h-3.25Z" transform="translate(-3.25)" style="fill:#fff" />
        <path d="M503.83,749.81h23.68v2.92H507v13.83h20.1v2.91H507v14.78h20.49v2.92H503.83Z" transform="translate(-3.25)" style="fill:#fff" />
        <path d="M538.6,754.91v32.26h-3.19V749.81h3.25l23.41,31.81V749.81h3.19v37.36h-3.14Z" transform="translate(-3.25)" style="fill:#fff" />
        <path d="M584.07,752.73h-12.2v-2.92h27.66v2.92H587.32v34.44h-3.25Z" transform="translate(-3.25)" style="fill:#fff" />
    </g>
</svg>